<?xml version="1.0" encoding="UTF-8" standalone="no"?>
<svg
   xmlns:svg="http://www.w3.org/2000/svg"
   xmlns="http://www.w3.org/2000/svg"
   version="1.1"
   id="svg5365"
   viewBox="0 0 498.03 93.08"
   height="93.080002"
   width="498.03">
  <defs
     id="defs5367" />
  <g
     transform="translate(-53.842143,-337.25078)"
     id="layer1">
    <path
       id="path12"
       style="fill:#db3333;fill-opacity:1;fill-rule:nonzero;stroke:none"
       d="m 53.842143,430.33078 498.029997,0 0,-93.08 -498.029997,0 0,93.08 z" />
    <path
       id="path24"
       d="m 100.38256,347.25036 c -20.177342,0 -36.540505,16.35824 -36.540505,36.54023 0,20.18199 16.363163,36.5406 36.540505,36.5406 20.18203,0 36.54049,-16.35861 36.54049,-36.5406 0,-20.18199 -16.35846,-36.54023 -36.54049,-36.54023 z m 257.17783,1.63128 c -7.97886,0 -16.51629,4.33181 -16.51629,13.36454 0,8.28733 6.61658,10.82802 13.17149,12.55573 6.49792,1.73265 13.11212,2.53689 13.11212,7.29779 0,4.51864 -5.19235,5.51046 -8.59557,5.51046 -5.19738,0 -9.76733,-2.28931 -9.76733,-8.16545 l -9.40403,0 c -0.12338,10.8884 9.0228,15.70778 18.80057,15.70778 11.99913,0 18.37035,-6.06295 18.37035,-14.16536 0,-10.02454 -9.89406,-12.06059 -13.11216,-12.8671 -11.06881,-2.84333 -13.17891,-3.27924 -13.17891,-6.68228 0,-3.71174 3.58743,-5.00619 6.68213,-5.00619 4.63734,0 8.41317,1.36623 8.72168,6.68227 l 9.40399,0 c 0,-10.2049 -8.4704,-14.23219 -17.68804,-14.23219 z m 40.14482,0 c -7.97881,0 -16.50883,4.33181 -16.50883,13.36454 0,8.28733 6.61182,10.82802 13.1715,12.55573 6.49316,1.73265 13.11211,2.53689 13.11211,7.29779 0,4.51864 -5.19709,5.51046 -8.59556,5.51046 -5.19739,0 -9.77479,-2.28931 -9.77479,-8.16545 l -9.40399,0 c -0.12337,10.8884 9.03495,15.70778 18.80793,15.70778 11.99912,0 18.37041,-6.06295 18.37041,-14.16536 0,-10.02454 -9.90148,-12.06059 -13.11958,-12.8671 -11.07351,-2.84333 -13.1715,-3.27924 -13.1715,-6.68228 0,-3.71174 3.58743,-5.00619 6.68218,-5.00619 4.6373,0 8.41316,1.36623 8.72167,6.68227 l 9.40395,0 c 0,-10.2049 -8.47781,-14.23219 -17.6955,-14.23219 z m 124.89925,0 c -7.97882,0 -16.50883,4.33181 -16.50883,13.36454 0,8.28733 6.61657,10.82802 13.1715,12.55573 6.49791,1.73265 13.11216,2.53689 13.11216,7.29779 0,4.51864 -5.1971,5.51046 -8.59561,5.51046 -5.19739,0 -9.77479,-2.28931 -9.77479,-8.16545 l -9.40394,0 c -0.12816,10.8884 9.03015,15.70778 18.80793,15.70778 11.99907,0 18.37035,-6.06295 18.37035,-14.16536 0,-10.02454 -9.89875,-12.06059 -13.11212,-12.8671 -11.07356,-2.84333 -13.17895,-3.27924 -13.17895,-6.68228 0,-3.71174 3.58748,-5.00619 6.68218,-5.00619 4.64204,0 8.40836,1.36623 8.72167,6.68227 l 9.3965,0 c 0,-10.2049 -8.47036,-14.23219 -17.68805,-14.23219 z m -398.08901,1.03852 c 1.89384,1.348 3.67049,2.85928 5.31752,4.50155 7.55168,7.57082 12.1878,17.90634 12.19253,29.4357 -0.005,11.52899 -4.64085,21.87705 -12.19253,29.44293 -1.63279,1.63277 -3.40554,3.12886 -5.28044,4.47192 l 27.78174,0 c 4.59463,-7.02932 7.80267,-15.06567 9.24086,-23.68032 l 20.60271,0 c -1.03479,8.34885 -3.30094,16.30925 -6.6377,23.68032 l 43.34134,0 c 1.69922,-5.96612 2.96473,-12.11602 3.75265,-18.41477 l -20.59527,0 c 0.26105,-1.74176 0.48443,-3.4953 0.66004,-5.26555 l 20.47665,0 c 0.28005,-3.36999 0.42291,-6.78403 0.42291,-10.23453 0,-3.42238 -0.13242,-6.80681 -0.40772,-10.15288 l -20.48405,0 c -0.17561,-1.77063 -0.38684,-3.52378 -0.65269,-5.26593 l 20.59531,0 c -0.79266,-6.33634 -2.06885,-12.52384 -3.78232,-18.51844 l -43.34138,0 c 3.35105,7.40449 5.62993,15.39717 6.65997,23.78437 l -20.59532,0 c -1.42868,-8.65755 -4.65956,-16.72655 -9.27792,-23.78437 l -27.79655,0 z m 114.74621,0.0143 0,44.16419 9.71547,0 0,-19.05232 17.88088,0 0,19.05232 9.70805,0 0,-44.16419 -9.70805,0 0,16.95363 -17.88088,0 0,-16.95363 -9.71547,0 z m 62.99472,0 0,44.16419 33.52207,0 0,-8.15785 -23.81402,0 0,-10.82802 21.40367,0 0,-7.54955 -21.40367,0 0,-9.46332 23.32452,0 0,-8.16545 -33.03257,0 z m 120.3827,0 0,44.16419 33.52204,0 0,-8.15785 -23.80659,0 0,-10.82802 21.39627,0 0,-7.54955 -21.39627,0 0,-9.46332 23.31712,0 0,-8.16545 -33.03257,0 z m 40.08555,0 0,44.17178 9.71545,0 0,-17.26538 9.70805,0 c 4.88411,0 6.68572,2.04479 7.36447,6.68228 0.49363,3.52644 0.36548,7.79711 1.5426,10.5831 l 9.71545,0 c -1.73246,-2.47765 -1.669,-7.67105 -1.85411,-10.45704 -0.30851,-4.45712 -1.6719,-9.09689 -6.4374,-10.33097 l 0,-0.11863 c 4.88891,-1.98402 6.98624,-5.87499 6.98624,-11.07256 0,-6.68303 -5.00962,-12.19235 -12.92678,-12.19235 l -23.81397,0 z M 94.330755,352.9308 c -3.104187,4.02463 -5.626937,8.5334 -7.41635,13.39378 -3.30355,-1.02524 -6.433562,-2.42488 -9.366875,-4.13854 0.199351,-0.21359 0.396801,-0.42624 0.600713,-0.63033 4.343025,-4.33827 9.926675,-7.40526 16.182512,-8.62491 z m 12.363135,0.0518 c 6.15143,1.25308 11.64637,4.29689 15.92298,8.57326 0.22782,0.22784 0.45186,0.46468 0.67485,0.69717 -2.8906,1.68025 -5.97196,3.04116 -9.21854,4.0569 -1.78467,-4.83684 -4.28934,-9.31637 -7.37929,-13.32733 z m -8.743897,3.61188 0,11.71048 c -2.059975,-0.11387 -4.077225,-0.35931 -6.05175,-0.73437 1.514125,-3.95361 3.5551,-7.64409 6.05175,-10.97611 z m 5.102447,0.0143 c 2.4919,3.33202 4.52757,7.01452 6.03694,10.95408 -1.96979,0.37973 -3.98171,0.62009 -6.03694,0.734 l 0,-11.68808 z m 369.38764,0.87525 10.63507,0 c 4.33358,0 6.68218,1.85378 6.68218,6.1256 0,4.45218 -2.3486,6.30407 -6.68218,6.30407 l -10.63507,0 0,-12.42967 z m -398.118674,8.71411 c 3.445937,2.08351 7.156825,3.76641 11.072649,4.99101 -1.039475,4.03943 -1.594575,8.28315 -1.594575,12.64496 0,4.29575 0.539063,8.46505 1.550063,12.45209 -3.920588,1.23901 -7.628813,2.94053 -11.065213,5.04303 -3.374737,-5.01228 -5.339775,-11.04143 -5.339825,-17.53954 0,-6.52165 1.983125,-12.56979 5.3769,-17.59155 z m 52.181634,0.0816 c 3.3605,5.00277 5.31757,11.02169 5.31757,17.50991 0,6.40774 -1.90961,12.35981 -5.19891,17.32461 -3.41271,-2.04553 -7.08828,-3.70148 -10.96139,-4.90215 0.99675,-3.96348 1.52773,-8.11076 1.52773,-12.37803 0,-4.36675 -0.555,-8.61085 -1.59452,-12.65978 3.85417,-1.2056 7.51105,-2.85357 10.90952,-4.89456 z m -15.8488,6.17041 c 0.9398,3.6358 1.4388,7.4493 1.4388,11.38392 0,3.83515 -0.47972,7.54993 -1.37206,11.10978 -2.4919,-0.50768 -5.05324,-0.82588 -7.66854,-0.94929 l 0,-20.5879 c 2.59158,-0.12816 5.12889,-0.44903 7.6018,-0.95651 z m -20.320859,0.005 c 2.47765,0.50806 5.025037,0.82853 7.616612,0.95688 l 0,20.59512 c -2.610562,0.1329 -5.1719,0.46895 -7.668537,0.98651 -0.901838,-3.56935 -1.379475,-7.30766 -1.379475,-11.1618 0,-3.93008 0.4916,-7.74093 1.4314,-11.37671 z m 194.212689,12.1259 0,9.52255 9.7155,0 0,-9.52255 -9.7155,0 z M 103.05244,399.1022 c 2.08845,0.10912 4.13774,0.34981 6.14075,0.73437 -1.51887,4.03905 -3.5919,7.81003 -6.14075,11.21344 l 0,-11.94781 z m -5.102447,0.01 0,11.96223 c -2.539362,-3.39353 -4.609775,-7.15387 -6.133387,-11.18382 2.00305,-0.39395 4.044937,-0.65995 6.133387,-0.77841 z m 16.219587,1.97262 c 3.26086,1.01575 6.36568,2.39413 9.27051,4.07893 -0.27055,0.28953 -0.54318,0.58021 -0.82322,0.86043 -4.25763,4.2574 -9.72314,7.2959 -15.84139,8.55847 3.10894,-4.05843 5.61418,-8.6044 7.3941,-13.49783 z m -27.321912,0.074 c 1.779925,4.88886 4.300013,9.42686 7.40895,13.47579 -6.222612,-1.22953 -11.784337,-4.29119 -16.108375,-8.61048 -0.223087,-0.22307 -0.43145,-0.45471 -0.645237,-0.68235 2.923825,-1.72771 6.050612,-3.1338 9.344662,-4.18296 z m 213.146732,5.86625 c -3.31303,0 -5.25818,2.47614 -5.25818,5.65134 0,3.09014 1.94515,5.56249 5.25818,5.56249 3.31304,0 5.26564,-2.47235 5.26564,-5.56249 0,-3.1752 -1.9526,-5.65134 -5.26564,-5.65134 z m 21.67067,0 c -1.93182,0 -4.00483,1.05296 -4.00483,3.24128 0,2.00756 1.60374,2.61815 3.18905,3.0404 1.57584,0.41768 3.18161,0.61172 3.18161,1.7653 0,1.09625 -1.26285,1.3423 -2.08398,1.3423 -1.25782,0 -2.36588,-0.55629 -2.36588,-1.98023 l -2.28419,0 c -0.0285,2.63449 2.19254,3.80478 4.56103,3.80478 2.90487,0 4.44986,-1.46875 4.44986,-3.43379 0,-2.42564 -2.39845,-2.92041 -3.18161,-3.11483 -2.68175,-0.68842 -3.1891,-0.79095 -3.1891,-1.61683 0,-0.89728 0.8743,-1.21624 1.62424,-1.21624 1.12016,0 2.03029,0.33036 2.10624,1.61646 l 2.28424,0 c 0,-2.47272 -2.05584,-3.4486 -4.28669,-3.4486 z m 90.75424,0 c -1.93181,0 -3.99742,1.05296 -3.99742,3.24128 0,2.00756 1.60372,2.61815 3.18905,3.0404 1.57582,0.41768 3.1742,0.61172 3.1742,1.7653 0,1.09625 -1.2581,1.3423 -2.08399,1.3423 -1.25781,0 -2.35842,-0.55629 -2.35842,-1.98023 l -2.28424,0 c -0.0332,2.63449 2.19259,3.80478 4.56108,3.80478 2.90483,0 4.44241,-1.46875 4.44241,-3.43379 0,-2.42564 -2.39578,-2.92041 -3.1742,-3.11483 -2.6818,-0.68842 -3.18906,-0.79095 -3.18906,-1.61683 0,-0.89728 0.8716,-1.21624 1.61678,-1.21624 1.12492,0 2.03772,0.33036 2.11365,1.61646 l 2.27684,0 c 0,-2.47272 -2.05109,-3.4486 -4.28668,-3.4486 z m 20.84004,0 c -3.31308,0 -5.26558,2.47614 -5.26558,5.65134 0,3.09014 1.9525,5.56249 5.26558,5.56249 3.31304,0 5.25823,-2.47235 5.25823,-5.56249 0,-3.1752 -1.94519,-5.65134 -5.25823,-5.65134 z m 42.03605,0 c -1.93655,0 -4.00482,1.05296 -4.00482,3.24128 0,2.00756 1.60639,2.61815 3.19646,3.0404 1.57108,0.41768 3.1816,0.61172 3.1816,1.7653 0,1.09625 -1.26284,1.3423 -2.08399,1.3423 -1.26255,0 -2.37327,-0.55629 -2.37327,-1.98023 l -2.27684,0 c -0.0285,2.63449 2.18993,3.80478 4.55367,3.80478 2.90963,0 4.44982,-1.46875 4.44982,-3.43379 0,-2.42564 -2.39574,-2.92041 -3.17416,-3.11483 -2.68181,-0.68842 -3.18911,-0.79095 -3.18911,-1.61683 0,-0.89728 0.86685,-1.21624 1.61679,-1.21624 1.12016,0 2.03771,0.33036 2.11365,1.61646 l 2.27684,0 c 0,-2.47272 -2.05579,-3.4486 -4.28664,-3.4486 z m 19.73496,0 c -1.93655,0 -4.00482,1.05296 -4.00482,3.24128 0,2.00756 1.59899,2.61815 3.18905,3.0404 1.57109,0.41768 3.17421,0.61172 3.17421,1.7653 0,1.09625 -1.2581,1.3423 -2.08399,1.3423 -1.25781,0 -2.35847,-0.55629 -2.35847,-1.98023 l -2.27679,0 c -0.0333,2.63449 2.18248,3.80478 4.54622,3.80478 2.90963,0 4.45727,-1.46875 4.45727,-3.43379 0,-2.42564 -2.40319,-2.92041 -3.18161,-3.11483 -2.68175,-0.68842 -3.18905,-0.79095 -3.18905,-1.61683 0,-0.89728 0.87158,-1.21624 1.61678,-1.21624 1.12492,0 2.04245,0.33036 2.11365,1.61646 l 2.27683,0 c 0,-2.47272 -2.04842,-3.4486 -4.27928,-3.4486 z m 42.1992,0 c -1.93656,0 -3.99742,1.05296 -3.99742,3.24128 0,2.00756 1.60374,2.61815 3.18905,3.0404 1.57584,0.41768 3.1742,0.61172 3.1742,1.7653 0,1.09625 -1.25539,1.3423 -2.07652,1.3423 -1.25787,0 -2.37329,-0.55629 -2.37329,-1.98023 l -2.27683,0 c -0.0285,2.63449 2.19258,3.80478 4.56106,3.80478 2.90489,0 4.44242,-1.46875 4.44242,-3.43379 0,-2.42564 -2.39578,-2.92041 -3.1742,-3.11483 -2.68175,-0.68842 -3.18907,-0.79095 -3.18907,-1.61683 0,-0.89728 0.8716,-1.21624 1.6168,-1.21624 1.12492,0 2.0377,0.33036 2.11365,1.61646 l 2.27683,0 c 0,-2.47272 -2.05584,-3.4486 -4.28668,-3.4486 z m -189.19928,0.01 c -3.31303,0 -5.25819,2.46854 -5.25819,5.64374 0,3.09014 1.94516,5.56249 5.25819,5.56249 1.03479,0 2.11845,-0.40535 2.94434,-1.46875 l 0.23732,1.21661 1.49808,0 0,-5.79221 -4.49429,0 0,1.75771 2.36582,0 c -0.1329,1.4809 -1.02286,2.3064 -2.55127,2.3064 -2.11218,0 -2.90717,-1.79758 -2.90717,-3.58225 0,-1.87011 0.79499,-3.67111 2.90717,-3.67111 1.10597,0 1.99889,0.61552 2.26944,1.80213 l 2.23976,0 c -0.25156,-2.43018 -2.32103,-3.77476 -4.5092,-3.77476 z m -109.6215,0.25204 2.83307,10.70195 2.38809,0 1.77993,-7.29058 0.0285,0 1.817,7.29058 2.33617,0 2.87015,-10.70195 -2.3065,0 -1.75027,7.37184 -0.0285,0 -1.83187,-7.37184 -2.20264,0 -1.86152,7.28297 -0.0238,0 -1.69094,-7.28297 -2.35842,0 z m 17.7919,0 -4.05676,10.69436 2.38068,0 0.83804,-2.37324 4.00484,0 0.80837,2.37324 2.44002,0 -3.99743,-10.69436 -2.41776,0 z m 7.34962,0 0,10.70195 2.35843,0 0,-4.18296 2.34361,0 c 1.18663,0 1.62595,0.49173 1.78734,1.61683 0.11862,0.85437 0.0935,1.89213 0.37829,2.56613 l 2.35097,0 c -0.42244,-0.60299 -0.40962,-1.86251 -0.45234,-2.53651 -0.0759,-1.07764 -0.40392,-2.20047 -1.55746,-2.4993 l 0,-0.038 c 1.18188,-0.47465 1.69094,-1.41484 1.69094,-2.6774 0,-1.61835 -1.21211,-2.95154 -3.12969,-2.95154 l -5.76999,0 z m 10.82793,0 0,10.69436 8.12097,0 0,-1.97264 -5.76995,0 0,-2.62536 5.184,0 0,-1.82455 -5.184,0 0,-2.29159 5.65124,0 0,-1.98022 -8.00226,0 z m 9.71546,0 0,10.69436 2.35101,0 0,-4.61281 4.33115,0 0,4.61281 2.35103,0 0,-10.69436 -2.35103,0 0,4.10132 -4.33115,0 0,-4.10132 -2.35101,0 z m 22.72381,0 0,6.65265 c 0,2.90484 1.68472,4.30144 4.56107,4.30144 2.86212,0 4.56848,-1.41103 4.56848,-4.30144 l 0,-6.65265 -2.35102,0 0,6.65265 c 0,1.58987 -0.53722,2.32121 -2.21747,2.32121 -1.90332,0 -2.20268,-1.15359 -2.20268,-2.32121 l 0,-6.65265 -2.35838,0 z m 20.89192,0 0,10.70195 2.34361,0 0,-10.70195 -2.34361,0 z m 4.42015,0 0,10.69436 2.20268,0 0,-7.15691 0.0285,0 4.44982,7.15691 2.35102,0 0,-10.69436 -2.2027,0 0,7.17894 -0.0285,0 -4.46463,-7.17894 -2.33621,0 z m 34.39723,0 0,1.98022 3.21127,0 0,8.71414 2.35097,0 0,-8.71414 3.20386,0 0,-1.98022 -8.7661,0 z m 10.00465,0 0,10.70195 2.35098,0 0,-4.18296 2.35101,0 c 1.18663,0 1.62126,0.49173 1.78739,1.61683 0.11862,0.85437 0.0859,1.89213 0.3707,2.56613 l 2.35842,0 c -0.42243,-0.60299 -0.40962,-1.86251 -0.45234,-2.53651 -0.076,-1.07764 -0.40392,-2.20047 -1.55741,-2.4993 l 0,-0.038 c 1.18186,-0.47465 1.69093,-1.41484 1.69093,-2.6774 0,-1.61835 -1.21215,-2.95154 -3.12973,-2.95154 l -5.76995,0 z m 13.74995,0 -4.06416,10.69436 2.38069,0 0.83803,-2.37324 4.00488,0 0.80837,2.37324 2.43997,0 -3.99743,-10.69436 -2.41035,0 z m 7.34226,0 0,10.69436 2.20265,0 0,-7.15691 0.0285,0 4.44982,7.15691 2.35097,0 0,-10.69436 -2.20264,0 0,7.17894 -0.0285,0 -4.46466,-7.17894 -2.33612,0 z m 20.83999,0 0,10.69436 2.35843,0 0,-3.83439 2.46223,0 c 2.66752,0 3.70818,-1.69163 3.70818,-3.43378 0,-1.73722 -1.04066,-3.42619 -3.70818,-3.42619 l -4.82066,0 z m 21.66326,0 0,10.70195 2.35839,0 0,-4.18296 2.35101,0 c 1.18188,0 1.6138,0.49173 1.77993,1.61683 0.11862,0.85437 0.0935,1.89213 0.3783,2.56613 l 2.35097,0 c -0.42243,-0.60299 -0.40962,-1.86251 -0.45233,-2.53651 -0.076,-1.07764 -0.40393,-2.20047 -1.55742,-2.4993 l 0,-0.038 c 1.18187,-0.47465 1.69093,-1.41484 1.69093,-2.6774 0,-1.61835 -1.21215,-2.95154 -3.12973,-2.95154 l -5.76995,0 z m 9.71547,0 0,1.98022 3.21131,0 0,8.71414 2.35098,0 0,-8.71414 3.20391,0 0,-1.98022 -8.7662,0 z m 30.32556,0 3.9455,6.5338 0,4.16815 2.35103,0 0,-4.10891 3.96776,-6.59304 -2.61801,0 -2.48444,4.22739 -2.50675,-4.22739 -2.65509,0 z m 20.06134,0 0,1.98022 3.21131,0 0,8.71414 2.35098,0 0,-8.71414 3.20386,0 0,-1.98022 -8.76615,0 z m 9.99729,0 0,10.69436 8.12092,0 0,-1.97264 -5.76254,0 0,-2.62536 5.18404,0 0,-1.82455 -5.18404,0 0,-2.29159 5.64388,0 0,-1.98022 -8.00226,0 z m 9.72286,0 0,10.69436 2.20265,0 0,-7.4979 0.0285,0 2.61801,7.4979 1.81699,0 2.61801,-7.57954 0.0285,0 0,7.57954 2.20264,0 0,-10.69436 -3.30771,0 -2.36584,7.35702 -0.0285,0 -2.5067,-7.35702 -3.30773,0 z m -219.95503,1.7205 c 2.11218,0 2.90727,1.801 2.90727,3.6711 0,1.78467 -0.79509,3.58226 -2.90727,3.58226 -2.11217,0 -2.90721,-1.79759 -2.90721,-3.58226 0,-1.8701 0.79504,-3.6711 2.90721,-3.6711 z m 133.26495,0 c 2.11218,0 2.90722,1.801 2.90722,3.6711 0,1.78467 -0.79504,3.58226 -2.90722,3.58226 -2.11218,0 -2.90721,-1.79759 -2.90721,-3.58226 0,-1.8701 0.79503,-3.6711 2.90721,-3.6711 z m -167.35062,0.111 2.57349,0 c 1.04897,0 1.61673,0.44142 1.61673,1.47596 0,1.07726 -0.56776,1.5276 -1.61673,1.5276 l -2.57349,0 0,-3.00356 z m 112.9737,0 2.58094,0 c 1.04897,0 1.61673,0.44142 1.61673,1.47596 0,1.07726 -0.56776,1.5276 -1.61673,1.5276 l -2.58094,0 0,-3.00356 z m 41.93965,0 1.8244,0 c 1.09169,0 2.06177,0.23257 2.06177,1.59444 0,1.36697 -0.97008,1.60962 -2.06177,1.60962 l -1.8244,0 0,-3.20406 z m 21.66322,0 2.57354,0 c 1.04896,0 1.61674,0.44142 1.61674,1.47596 0,1.07726 -0.56778,1.5276 -1.61674,1.5276 l -2.57354,0 0,-3.00356 z m -185.11281,0.80842 0.0285,0 1.34975,3.92324 -2.77374,0 1.39433,-3.92324 z m 134.07331,0 0.0285,0 1.3498,3.92324 -2.77375,0 1.39428,-3.92324 z m -34.38977,1.99503 0,6.06675 6.0666,0 0,-6.06675 -6.0666,0 z m 103.97766,0 0,6.06675 6.06661,0 0,-6.06675 -6.06661,0 z"
       style="fill:#ffffff;fill-opacity:1;fill-rule:nonzero;stroke:none" />
  </g>
</svg>
